<?xml version="1.0" encoding="UTF-8"?>
<svg id="Layer_2" data-name="Layer 2" xmlns="http://www.w3.org/2000/svg" viewBox="0 0 294.91 427.25">
  <g id="Layer_1-2" data-name="Layer 1">
    <g>
      <g>
        <path fill="currentColor" d="M110.39,142.32c-16.46-9.64-30.07-14.88-33.48-16.14L31.87,0h27.7l50.82,142.32Z"/>
        <path fill="currentColor" d="M133.15,192.9l-7.4,20.72h-17.64l-18.88-52.9c13.21,7.02,30.13,17.74,43.91,32.18Z"/>
        <path fill="currentColor" d="M202,0l-59.14,165.7c-7.12-6.36-14.56-11.93-21.77-16.71L174.29,0h27.7Z"/>
      </g>
      <g>
        <path fill="currentColor" d="M164.97,284.93c16.46,9.64,30.07,14.88,33.48,16.14l45.04,126.18h-27.7l-50.82-142.32Z"/>
        <path fill="currentColor" d="M142.2,234.35l7.4-20.72h17.64l18.88,52.9c-13.21-7.02-30.13-17.74-43.91-32.18Z"/>
        <path fill="currentColor" d="M73.36,427.25l59.14-165.7c7.12,6.36,14.56,11.93,21.77,16.71l-53.2,149h-27.7Z"/>
      </g>
      <g>
        <path fill="currentColor" d="M44.19,87.44c-3.41-1.25-17.02-6.5-33.48-16.14l50.82,142.32h27.7l-45.04-126.18Z"/>
        <path fill="currentColor" d="M12.97,0H0v31.88c10.83,8.94,22.31,15.95,31.85,21.02L12.97,0Z"/>
        <path fill="currentColor" d="M0,307.85v69.54c.74.64,1.48,1.28,2.21,1.93l59.14-165.7h-27.7L0,307.85Z"/>
      </g>
      <g>
        <path fill="currentColor" d="M290.25,0l-7.4,20.72c3.83,4.01,7.9,7.72,12.06,11.16V0h-4.66Z"/>
        <path fill="currentColor" d="M214.01,213.62h27.7l53.2-149c-7.2-4.78-14.64-10.34-21.77-16.71l-59.14,165.7Z"/>
        <path fill="currentColor" d="M213.83,213.62h-27.7l45.04,126.18c3.41,1.25,17.02,6.5,33.48,16.14l-50.82-142.32Z"/>
        <path fill="currentColor" d="M243.5,374.35l18.88,52.9h17.64l7.4-20.72c-13.78-14.44-30.7-25.15-43.91-32.18Z"/>
        <path fill="currentColor" d="M275.36,362.62c6.46,4.29,13.11,9.21,19.56,14.77v-69.54l-19.56,54.77Z"/>
      </g>
    </g>
  </g>
</svg>