<svg width="295" height="428" viewBox="0 0 295 428" fill="none" xmlns="http://www.w3.org/2000/svg">
<g clip-path="url(#clip0_379_1485)">
<path d="M110.39 142.32C93.93 132.68 80.32 127.44 76.91 126.18L31.87 0H59.57L110.39 142.32Z" fill="#D38D4B"/>
<path d="M133.15 192.9L125.75 213.62H108.11L89.23 160.72C102.44 167.74 119.36 178.46 133.14 192.9H133.15Z" fill="#D38D4B"/>
<path d="M202 0L142.86 165.7C135.74 159.34 128.3 153.77 121.09 148.99L174.29 0H201.99H202Z" fill="#D38D4B"/>
<path d="M164.97 284.93C181.43 294.57 195.04 299.81 198.45 301.07L243.49 427.25H215.79L164.97 284.93Z" fill="#D38D4B"/>
<path d="M142.2 234.35L149.6 213.63H167.24L186.12 266.53C172.91 259.51 155.99 248.79 142.21 234.35H142.2Z" fill="#D38D4B"/>
<path d="M73.36 427.25L132.5 261.55C139.62 267.91 147.06 273.48 154.27 278.26L101.07 427.26H73.37L73.36 427.25Z" fill="#D38D4B"/>
<path d="M44.19 87.44C40.78 86.19 27.17 80.94 10.71 71.3L61.53 213.62H89.23L44.19 87.44Z" fill="#D38D4B"/>
<path d="M12.97 0H0V31.88C10.83 40.82 22.31 47.83 31.85 52.9L12.97 0Z" fill="#D38D4B"/>
<path d="M0 307.85V377.39C0.74 378.03 1.48 378.67 2.21 379.32L61.35 213.62H33.65L0 307.85Z" fill="#D38D4B"/>
<path d="M290.25 0L282.85 20.72C286.68 24.73 290.75 28.44 294.91 31.88V0H290.25Z" fill="#D38D4B"/>
<path d="M214.01 213.62H241.71L294.91 64.62C287.71 59.84 280.27 54.28 273.14 47.91L214 213.61L214.01 213.62Z" fill="#D38D4B"/>
<path d="M213.83 213.62H186.13L231.17 339.8C234.58 341.05 248.19 346.3 264.65 355.94L213.83 213.62Z" fill="#D38D4B"/>
<path d="M243.5 374.35L262.38 427.25H280.02L287.42 406.53C273.64 392.09 256.72 381.38 243.51 374.35H243.5Z" fill="#D38D4B"/>
<path d="M275.36 362.62C281.82 366.91 288.47 371.83 294.92 377.39V307.85L275.36 362.62Z" fill="#D38D4B"/>
</g>
<defs>
<clipPath id="clip0_379_1485">
<rect width="294.91" height="427.25" fill="white"/>
</clipPath>
</defs>
</svg>
